<svg version="1.1" id="Layer_1" xmlns="http://www.w3.org/2000/svg" xmlns:xlink="http://www.w3.org/1999/xlink" x="0px" y="0px"
	 width="100%" viewBox="0 0 720 752" enable-background="new 0 0 720 752" xml:space="preserve">
<path fill="#000000" opacity="1.000000" stroke="none" 
	d="
M721.000000,418.531342 
	C718.865540,428.902893 717.394897,438.966156 714.128418,448.599060 
	C701.267822,486.525360 677.827148,514.620178 639.090759,527.917480 
	C614.871216,536.231567 590.839905,534.356201 567.465515,524.257202 
	C563.877747,522.707092 562.147766,523.058716 559.803223,526.292358 
	C540.767090,552.547363 515.779236,570.202637 483.718140,576.557617 
	C444.643280,584.302734 409.396362,575.587402 378.440979,550.276978 
	C371.003662,544.195862 372.920532,544.506714 364.794220,548.845154 
	C341.413971,561.327148 316.664703,568.665955 290.074310,570.518311 
	C254.426224,573.001648 220.844727,566.419067 189.109436,550.127075 
	C180.613800,545.765686 172.870148,540.261658 165.661285,534.049622 
	C162.410294,531.248169 159.586838,530.708069 155.385635,532.425232 
	C119.350990,547.154236 84.437874,544.237427 51.835266,523.245972 
	C23.807644,505.200165 7.822955,478.836090 3.720949,445.605377 
	C-3.258213,389.066559 39.264442,334.735565 99.148438,327.626709 
	C109.174644,326.436462 119.121086,326.806732 129.028976,328.103058 
	C132.501572,328.557404 133.733429,327.617157 134.611633,324.497650 
	C143.344299,293.477783 161.058136,268.670807 187.360077,250.241898 
	C209.582840,234.671143 234.415146,226.382538 261.683105,225.676590 
	C278.662628,225.237045 295.273407,227.153488 311.288574,233.005753 
	C314.749512,234.270462 316.366547,233.211868 317.829132,230.008194 
	C331.648987,199.736542 351.896851,174.788345 380.036865,156.747269 
	C400.230286,143.800919 422.220245,135.838959 446.323242,133.479355 
	C473.503845,130.818451 499.662903,134.384735 524.225098,146.066605 
	C570.199036,167.931992 599.547485,204.260803 614.127258,252.757568 
	C616.136169,259.439880 617.536316,266.314697 618.995544,273.148010 
	C619.568970,275.833344 620.925415,277.119995 623.539978,277.658081 
	C675.974182,288.448792 704.479919,322.901337 717.346130,372.726990 
	C718.674438,377.871033 719.563965,383.128357 720.828613,388.666565 
	C721.000000,398.687561 721.000000,408.375122 721.000000,418.531342 
M331.845154,227.309235 
	C329.474884,232.634369 327.142273,237.976700 324.721741,243.278885 
	C322.956848,247.144943 320.288269,249.012894 315.936096,247.038727 
	C294.025238,237.099823 271.004730,235.006973 247.501740,238.322479 
	C215.810211,242.793106 189.705399,257.827820 169.197159,282.261780 
	C156.472366,297.422394 148.004578,314.840576 143.866074,334.310730 
	C142.496811,340.752625 140.294739,341.962402 133.908646,340.586975 
	C121.400223,337.892914 108.799431,337.477051 96.191742,339.498627 
	C53.700031,346.311981 19.581982,380.227692 15.039343,422.806519 
	C11.476276,456.203613 21.833122,484.742371 47.669472,506.126770 
	C80.728882,533.489563 117.623970,537.265137 156.617004,519.522888 
	C161.253052,517.413452 164.692856,517.596069 168.239517,521.284180 
	C175.707016,529.049500 184.684097,534.805481 194.084961,539.909424 
	C223.330917,555.787415 254.692719,561.055481 287.682007,559.173828 
	C316.793274,557.513245 343.550720,549.050171 368.063354,533.379456 
	C372.231659,530.714722 375.363281,531.741516 378.649567,535.027771 
	C389.370636,545.748779 401.657776,554.273682 415.798126,559.839966 
	C467.282959,580.107056 523.433167,561.762939 553.621765,514.937744 
	C558.083008,508.018036 559.189392,507.831665 566.464050,511.443787 
	C584.580444,520.439148 603.578491,523.829102 623.654602,520.123047 
	C653.840576,514.550842 676.106262,497.277008 691.375977,471.585846 
	C714.835266,432.115753 716.637024,390.539185 697.497131,349.036316 
	C681.539429,314.433594 654.928345,292.444977 615.793274,288.126953 
	C611.195007,287.619629 609.304321,285.005829 608.645020,280.619019 
	C601.597839,233.726669 580.424255,195.104004 540.607666,168.297668 
	C500.344757,141.190903 456.740784,136.440475 411.481262,153.479248 
	C375.473480,167.035065 349.661957,192.551300 331.845154,227.309235 
z"/>
</svg>