<svg width="355" height="128" viewBox="0 0 355 128" fill="none" xmlns="http://www.w3.org/2000/svg">
<g filter="url(#filter0_d_59_353)">
<path d="M23.6602 0.25H331.34C342.056 0.25 350.75 9.08832 350.75 20V53.7529C342.58 53.8887 336.005 60.6666 336.005 69C336.005 77.3334 342.58 84.1103 350.75 84.2461V100C350.75 110.912 342.056 119.75 331.34 119.75H23.6602C12.9443 119.75 4.25 110.912 4.25 100V84.2461C12.4201 84.1103 18.9951 77.3334 18.9951 69C18.9951 60.6666 12.4201 53.8887 4.25 53.7529V20C4.25 9.08832 12.9443 0.25 23.6602 0.25Z" fill="white" fill-opacity="0.8"/>
<path d="M23.6602 0.25H331.34C342.056 0.25 350.75 9.08832 350.75 20V53.7529C342.58 53.8887 336.005 60.6666 336.005 69C336.005 77.3334 342.58 84.1103 350.75 84.2461V100C350.75 110.912 342.056 119.75 331.34 119.75H23.6602C12.9443 119.75 4.25 110.912 4.25 100V84.2461C12.4201 84.1103 18.9951 77.3334 18.9951 69C18.9951 60.6666 12.4201 53.8887 4.25 53.7529V20C4.25 9.08832 12.9443 0.25 23.6602 0.25Z" stroke="url(#paint0_linear_59_353)" stroke-width="0.5" style="mix-blend-mode:overlay"/>
<path d="M23.6602 0.25H331.34C342.056 0.25 350.75 9.08832 350.75 20V53.7529C342.58 53.8887 336.005 60.6666 336.005 69C336.005 77.3334 342.58 84.1103 350.75 84.2461V100C350.75 110.912 342.056 119.75 331.34 119.75H23.6602C12.9443 119.75 4.25 110.912 4.25 100V84.2461C12.4201 84.1103 18.9951 77.3334 18.9951 69C18.9951 60.6666 12.4201 53.8887 4.25 53.7529V20C4.25 9.08832 12.9443 0.25 23.6602 0.25Z" fill="white" fill-opacity="0.8"/>
<path d="M23.6602 0.25H331.34C342.056 0.25 350.75 9.08832 350.75 20V53.7529C342.58 53.8887 336.005 60.6666 336.005 69C336.005 77.3334 342.58 84.1103 350.75 84.2461V100C350.75 110.912 342.056 119.75 331.34 119.75H23.6602C12.9443 119.75 4.25 110.912 4.25 100V84.2461C12.4201 84.1103 18.9951 77.3334 18.9951 69C18.9951 60.6666 12.4201 53.8887 4.25 53.7529V20C4.25 9.08832 12.9443 0.25 23.6602 0.25Z" stroke="url(#paint1_linear_59_353)" stroke-width="0.5" style="mix-blend-mode:overlay"/>
<path d="M131.667 22C131.667 22.7364 132.264 23.3333 133 23.3333C133.736 23.3333 134.333 22.7364 134.333 22C134.333 21.2636 133.736 20.6667 133 20.6667C132.264 20.6667 131.667 21.2636 131.667 22ZM220.667 22C220.667 22.7364 221.264 23.3333 222 23.3333C222.736 23.3333 223.333 22.7364 223.333 22C223.333 21.2636 222.736 20.6667 222 20.6667C221.264 20.6667 220.667 21.2636 220.667 22ZM135.023 22.25C135.161 22.25 135.273 22.1381 135.273 22C135.273 21.8619 135.161 21.75 135.023 21.75V22.25ZM139.068 21.75C138.93 21.75 138.818 21.8619 138.818 22C138.818 22.1381 138.93 22.25 139.068 22.25V21.75ZM143.114 22.25C143.252 22.25 143.364 22.1381 143.364 22C143.364 21.8619 143.252 21.75 143.114 21.75V22.25ZM147.159 21.75C147.021 21.75 146.909 21.8619 146.909 22C146.909 22.1381 147.021 22.25 147.159 22.25V21.75ZM151.205 22.25C151.343 22.25 151.455 22.1381 151.455 22C151.455 21.8619 151.343 21.75 151.205 21.75V22.25ZM155.25 21.75C155.112 21.75 155 21.8619 155 22C155 22.1381 155.112 22.25 155.25 22.25V21.75ZM159.295 22.25C159.434 22.25 159.545 22.1381 159.545 22C159.545 21.8619 159.434 21.75 159.295 21.75V22.25ZM163.341 21.75C163.203 21.75 163.091 21.8619 163.091 22C163.091 22.1381 163.203 22.25 163.341 22.25V21.75ZM167.386 22.25C167.524 22.25 167.636 22.1381 167.636 22C167.636 21.8619 167.524 21.75 167.386 21.75V22.25ZM171.432 21.75C171.294 21.75 171.182 21.8619 171.182 22C171.182 22.1381 171.294 22.25 171.432 22.25V21.75ZM175.477 22.25C175.615 22.25 175.727 22.1381 175.727 22C175.727 21.8619 175.615 21.75 175.477 21.75V22.25ZM179.523 21.75C179.385 21.75 179.273 21.8619 179.273 22C179.273 22.1381 179.385 22.25 179.523 22.25V21.75ZM183.568 22.25C183.706 22.25 183.818 22.1381 183.818 22C183.818 21.8619 183.706 21.75 183.568 21.75V22.25ZM187.614 21.75C187.476 21.75 187.364 21.8619 187.364 22C187.364 22.1381 187.476 22.25 187.614 22.25V21.75ZM191.659 22.25C191.797 22.25 191.909 22.1381 191.909 22C191.909 21.8619 191.797 21.75 191.659 21.75V22.25ZM195.705 21.75C195.566 21.75 195.455 21.8619 195.455 22C195.455 22.1381 195.566 22.25 195.705 22.25V21.75ZM199.75 22.25C199.888 22.25 200 22.1381 200 22C200 21.8619 199.888 21.75 199.75 21.75V22.25ZM203.795 21.75C203.657 21.75 203.545 21.8619 203.545 22C203.545 22.1381 203.657 22.25 203.795 22.25V21.75ZM207.841 22.25C207.979 22.25 208.091 22.1381 208.091 22C208.091 21.8619 207.979 21.75 207.841 21.75V22.25ZM211.886 21.75C211.748 21.75 211.636 21.8619 211.636 22C211.636 22.1381 211.748 22.25 211.886 22.25V21.75ZM215.932 22.25C216.07 22.25 216.182 22.1381 216.182 22C216.182 21.8619 216.07 21.75 215.932 21.75V22.25ZM219.977 21.75C219.839 21.75 219.727 21.8619 219.727 22C219.727 22.1381 219.839 22.25 219.977 22.25V21.75ZM133 22.25H135.023V21.75H133V22.25ZM139.068 22.25H143.114V21.75H139.068V22.25ZM147.159 22.25H151.205V21.75H147.159V22.25ZM155.25 22.25H159.295V21.75H155.25V22.25ZM163.341 22.25H167.386V21.75H163.341V22.25ZM171.432 22.25H175.477V21.75H171.432V22.25ZM179.523 22.25H183.568V21.75H179.523V22.25ZM187.614 22.25H191.659V21.75H187.614V22.25ZM195.705 22.25H199.75V21.75H195.705V22.25ZM203.795 22.25H207.841V21.75H203.795V22.25ZM211.886 22.25H215.932V21.75H211.886V22.25ZM219.977 22.25H222V21.75H219.977V22.25Z" fill="black" fill-opacity="0.2"/>
<path d="M184.926 21.417C184.92 20.6743 183.911 20.1348 182.698 20.1348H180.14C179.785 20.1348 179.651 20.0776 179.442 19.8364L175.176 15.1836C175.043 15.0312 174.878 14.9551 174.688 14.9551H173.951C173.786 14.9551 173.691 15.1011 173.773 15.2788L175.97 20.1348L172.745 20.5029L171.596 18.3955C171.514 18.2368 171.374 18.167 171.165 18.167H170.892C170.727 18.167 170.619 18.2749 170.619 18.4399V24.394C170.619 24.5591 170.727 24.6606 170.892 24.6606H171.165C171.374 24.6606 171.514 24.5908 171.596 24.4385L172.745 22.3311L175.97 22.6992L173.773 27.5552C173.691 27.7266 173.786 27.8789 173.951 27.8789H174.688C174.878 27.8789 175.043 27.7964 175.176 27.6504L179.442 22.9912C179.651 22.7563 179.785 22.6992 180.14 22.6992H182.698C183.911 22.6992 184.92 22.1533 184.926 21.417Z" fill="#CF2530"/>
<path d="M165.548 35.343L163.585 36.76V35.499L165.73 33.913H166.874V43H165.548V35.343ZM173.379 33.393H174.692V37.618C175.29 36.916 176.088 36.565 177.084 36.565C177.916 36.565 178.536 36.786 178.943 37.228C179.351 37.67 179.554 38.2637 179.554 39.009V43H178.241V39.139C178.241 38.125 177.756 37.618 176.785 37.618C176.369 37.618 175.979 37.7177 175.615 37.917C175.26 38.1077 174.952 38.4023 174.692 38.801V43H173.379V33.393ZM181.174 36.76H182.448V37.878C182.708 37.4967 183.072 37.215 183.54 37.033C184.017 36.851 184.567 36.76 185.191 36.76V37.787C184.524 37.787 183.952 37.8953 183.475 38.112C182.998 38.3287 182.669 38.671 182.487 39.139V43H181.174V36.76ZM188.477 43.195C188.044 43.195 187.584 43.1387 187.099 43.026C186.614 42.922 186.232 42.779 185.955 42.597V41.479C186.293 41.6783 186.683 41.843 187.125 41.973C187.567 42.0943 187.996 42.155 188.412 42.155C188.88 42.155 189.222 42.0987 189.439 41.986C189.656 41.8733 189.764 41.6913 189.764 41.44C189.764 41.2493 189.712 41.0977 189.608 40.985C189.513 40.8637 189.344 40.7553 189.101 40.66C188.867 40.5647 188.512 40.452 188.035 40.322C187.524 40.1747 187.116 40.0273 186.813 39.88C186.518 39.724 186.293 39.529 186.137 39.295C185.99 39.061 185.916 38.7577 185.916 38.385C185.916 37.787 186.15 37.3363 186.618 37.033C187.095 36.721 187.732 36.565 188.529 36.565C188.945 36.565 189.352 36.604 189.751 36.682C190.15 36.76 190.47 36.8683 190.713 37.007V38.099C190.462 37.9517 190.15 37.8347 189.777 37.748C189.413 37.6613 189.04 37.618 188.659 37.618C188.2 37.618 187.849 37.6743 187.606 37.787C187.363 37.8997 187.242 38.099 187.242 38.385C187.242 38.567 187.294 38.7143 187.398 38.827C187.502 38.9397 187.667 39.0393 187.892 39.126C188.126 39.204 188.494 39.308 188.997 39.438C189.786 39.6547 190.332 39.9103 190.635 40.205C190.947 40.4997 191.103 40.907 191.103 41.427C191.103 41.9643 190.882 42.3933 190.44 42.714C189.998 43.0347 189.344 43.195 188.477 43.195Z" fill="#CF2530"/>
</g>
<defs>
<filter id="filter0_d_59_353" x="0" y="0" width="356" height="128" filterUnits="userSpaceOnUse" color-interpolation-filters="sRGB">
<feFlood flood-opacity="0" result="BackgroundImageFix"/>
<feColorMatrix in="SourceAlpha" type="matrix" values="0 0 0 0 0 0 0 0 0 0 0 0 0 0 0 0 0 0 127 0" result="hardAlpha"/>
<feOffset dy="4"/>
<feGaussianBlur stdDeviation="2"/>
<feComposite in2="hardAlpha" operator="out"/>
<feColorMatrix type="matrix" values="0 0 0 0 0 0 0 0 0 0 0 0 0 0 0 0 0 0 0.25 0"/>
<feBlend mode="normal" in2="BackgroundImageFix" result="effect1_dropShadow_59_353"/>
<feBlend mode="normal" in="SourceGraphic" in2="effect1_dropShadow_59_353" result="shape"/>
</filter>
<linearGradient id="paint0_linear_59_353" x1="177.5" y1="0" x2="177.5" y2="120" gradientUnits="userSpaceOnUse">
<stop stop-color="white"/>
<stop offset="1"/>
</linearGradient>
<linearGradient id="paint1_linear_59_353" x1="177.5" y1="0" x2="177.5" y2="120" gradientUnits="userSpaceOnUse">
<stop stop-color="white"/>
<stop offset="1"/>
</linearGradient>
</defs>
</svg>
